<?xml version="1.0" encoding="UTF-8"?>
<svg version="1.1" xmlns="http://www.w3.org/2000/svg" width="256" height="256">
<path d="M0 0 C0.91007812 -0.04898438 1.82015625 -0.09796875 2.7578125 -0.1484375 C11.49742047 1.31911572 17.73856357 8.82492903 23.6875 14.84692383 C24.64368765 15.8039593 25.60053956 16.7603315 26.55799866 17.71609497 C29.13651515 20.29375613 31.70572258 22.88051394 34.27327347 25.46909165 C36.96509731 28.1797599 39.66550674 30.88184826 42.36499023 33.58488464 C47.46713067 38.69632284 52.56157997 43.81535502 57.65326405 48.93720692 C63.45390213 54.77145991 69.26313361 60.59712429 75.07307816 66.42210734 C87.01659315 78.3969199 98.94935171 90.38239452 110.875 102.375 C114.2376679 100.91576796 116.42465646 99.06665303 118.99813843 96.47218323 C119.81113907 95.65759644 120.62413971 94.84300964 121.46177673 94.0037384 C122.344991 93.10862045 123.22820526 92.2135025 124.13818359 91.29125977 C125.08423773 90.3397282 126.03075748 89.38865938 126.97770691 88.4380188 C129.0141451 86.39187726 131.04748192 84.34271984 133.07853317 82.29123116 C136.29225512 79.04566397 139.51415192 75.80829631 142.73745728 72.57225037 C150.74303373 64.53260466 158.73929876 56.48371471 166.73065186 48.42993164 C172.94042439 42.17167339 179.15337085 35.91665019 185.37695372 29.67212147 C188.57968594 26.45788409 191.7753536 23.23683479 194.96586204 20.01046574 C196.95533114 18.00176025 198.95107222 15.99937765 200.94858742 13.9986763 C202.309895 12.63145449 203.66366161 11.25673718 205.01716614 9.88179016 C210.55516672 4.35213523 215.15903803 -0.05069546 223.375 -0.0625 C229.59604448 0.11476178 232.63043116 2.37308725 237.1875 6.4375 C240.07722928 9.75533732 240.08614888 12.94675578 240.1875 17.1875 C240.22488281 18.20457031 240.26226562 19.22164062 240.30078125 20.26953125 C239.21779723 28.16835962 231.79780942 33.72207423 226.42480469 39.05224609 C225.45827984 40.01820613 224.4921965 40.98460811 223.52651978 41.95141602 C220.91559576 44.56291178 218.29856944 47.1682126 215.68037319 49.77241468 C212.94081554 52.4994353 210.20695366 55.23215401 207.47247314 57.96426392 C202.29879522 63.1317358 197.12004208 68.29408998 191.93942952 73.45460856 C186.03948091 79.33217089 180.1452379 85.21544089 174.25145864 91.09918857 C162.13229362 103.19747144 150.00601086 115.28859527 137.875 127.375 C139.33423204 130.7376679 141.18334697 132.92465646 143.77781677 135.49813843 C144.59240356 136.31113907 145.40699036 137.12413971 146.2462616 137.96177673 C147.14137955 138.844991 148.0364975 139.72820526 148.95874023 140.63818359 C149.9102718 141.58423773 150.86134062 142.53075748 151.8119812 143.47770691 C153.85812274 145.5141451 155.90728016 147.54748192 157.95876884 149.57853317 C161.20433603 152.79225512 164.44170369 156.01415192 167.67774963 159.23745728 C175.71739534 167.24303373 183.76628529 175.23929876 191.82006836 183.23065186 C198.07832661 189.44042439 204.33334981 195.65337085 210.57787853 201.87695372 C213.79211591 205.07968594 217.01316521 208.2753536 220.23953426 211.46586204 C222.24823975 213.45533114 224.25062235 215.45107222 226.2513237 217.44858742 C227.61854551 218.809895 228.99326282 220.16366161 230.36820984 221.51716614 C236.12720865 227.28485674 240.30141372 231.86073854 240.3125 240.375 C240.12181967 247.07368287 238.18974843 250.1196041 233.4375 254.75 C228.08207376 257.192826 222.66224639 257.33017659 216.875 256.375 C210.73208707 252.96190957 206.11153509 247.87807265 201.19775391 242.92480469 C200.23179387 241.95827984 199.26539189 240.9921965 198.29858398 240.02651978 C195.68708822 237.41559576 193.0817874 234.79856944 190.47758532 232.18037319 C187.7505647 229.44081554 185.01784599 226.70695366 182.28573608 223.97247314 C177.1182642 218.79879522 171.95591002 213.62004208 166.79539144 208.43942952 C160.91782911 202.53948091 155.03455911 196.6452379 149.15081143 190.75145864 C137.05252856 178.63229362 124.96140473 166.50601086 112.875 154.375 C109.49088361 155.84081799 107.29188108 157.71494441 104.70043945 160.32250977 C103.87613434 161.14695587 103.05182922 161.97140198 102.20254517 162.8208313 C101.30683807 163.72687103 100.41113098 164.63291077 99.48828125 165.56640625 C98.52912192 166.52940518 97.56950529 167.49194882 96.60946655 168.45407104 C94.54514196 170.52471262 92.48396459 172.59841953 90.42514038 174.67453003 C87.16952636 177.95719916 83.90628842 181.23221719 80.6418457 184.50610352 C73.71363535 191.45651022 66.79389408 198.41532106 59.875 205.375 C52.40551406 212.88851637 44.93460889 220.40058671 37.45390224 227.90293407 C34.20903365 231.15776896 30.96910499 234.4174192 27.73286438 237.68083191 C25.71891358 239.70970013 23.70082901 241.73441743 21.68159866 243.75802994 C20.30013898 245.14501972 18.92372145 246.53702584 17.54745483 247.9291687 C16.31099716 249.16583786 16.31099716 249.16583786 15.04956055 250.42749023 C14.33575729 251.14573471 13.62195404 251.86397919 12.88652039 252.60398865 C7.94662368 256.95324268 3.39953693 256.80195139 -2.98828125 256.6875 C-8.46848124 256.1415274 -10.85085012 253.7162104 -14.5 249.875 C-16.85821342 244.7957711 -17.06914351 239.88018972 -16.125 234.375 C-12.93227021 227.55453351 -7.9872023 222.83310156 -2.67480469 217.58422852 C-1.70806482 216.61833607 -0.74198745 215.65178017 0.22348022 214.68461609 C2.83218988 212.07504953 5.45001156 209.474804 8.06962681 206.87619138 C10.81098428 204.15365181 13.54378716 201.42255229 16.27752686 198.69236755 C21.44920903 193.52999085 26.62848731 188.37530604 31.81057048 183.2233724 C37.71250162 177.35503197 43.60586527 171.47811936 49.49854136 165.60048783 C61.61455096 153.51579331 73.74122211 141.44185343 85.875 129.375 C84.40918201 125.99088361 82.53505559 123.79188108 79.92749023 121.20043945 C79.10304413 120.37613434 78.27859802 119.55182922 77.4291687 118.70254517 C76.52312897 117.80683807 75.61708923 116.91113098 74.68359375 115.98828125 C73.72059482 115.02912192 72.75805118 114.06950529 71.79592896 113.10946655 C69.72528738 111.04514196 67.65158047 108.98396459 65.57546997 106.92514038 C62.29280084 103.66952636 59.01778281 100.40628842 55.74389648 97.1418457 C48.79348978 90.21363535 41.83467894 83.29389408 34.875 76.375 C27.36148363 68.90551406 19.84941329 61.43460889 12.34706593 53.95390224 C9.09223104 50.70903365 5.8325808 47.46910499 2.56916809 44.23286438 C0.54029987 42.21891358 -1.48441743 40.20082901 -3.50802994 38.18159866 C-4.89501972 36.80013898 -6.28702584 35.42372145 -7.6791687 34.04745483 C-8.50361481 33.22314972 -9.32806091 32.3988446 -10.17749023 31.54956055 C-11.25485695 30.47885567 -11.25485695 30.47885567 -12.35398865 29.38652039 C-16.5296882 24.64374742 -16.55347599 20.43048447 -16.44140625 14.2890625 C-15.86880621 9.01548686 -13.34301959 6.44801726 -9.5 3.0625 C-6.10818724 0.65252778 -4.1351163 0.14973959 0 0 Z " fill="#FFFFFF" transform="translate(16.125,-0.375)"/>
</svg>
