<?xml version="1.0" encoding="UTF-8"?>
<svg version="1.1" xmlns="http://www.w3.org/2000/svg" width="256" height="256">
<path d="M0 0 C0.84027894 -0.00644889 1.68055788 -0.01289778 2.54629982 -0.0195421 C3.92342508 -0.01489629 3.92342508 -0.01489629 5.32837105 -0.01015663 C6.30760792 -0.01468774 7.28684479 -0.01921886 8.29575551 -0.02388728 C11.58606338 -0.03657543 14.87620666 -0.03490805 18.16653633 -0.03325844 C20.52189536 -0.03924091 22.87725242 -0.0460458 25.23260689 -0.05361366 C31.63753775 -0.071309 38.0424152 -0.07597052 44.44736814 -0.07724524 C48.44690197 -0.0782329 52.44642911 -0.08280337 56.44595909 -0.08823967 C69.67294622 -0.10585231 82.89990089 -0.11507848 96.12689982 -0.11357872 C97.1964613 -0.11345885 97.1964613 -0.11345885 98.28763008 -0.11333656 C99.3584976 -0.11321392 99.3584976 -0.11321392 100.4509988 -0.1130888 C112.0218294 -0.11227584 123.59252984 -0.13141592 135.16332279 -0.1596133 C147.04443807 -0.18833843 158.92548986 -0.20215381 170.80664074 -0.20042574 C177.47689552 -0.19976172 184.14703314 -0.20564771 190.81725883 -0.22678185 C197.08979227 -0.24611277 203.36203714 -0.24632376 209.63458061 -0.23174858 C211.93802498 -0.22965303 214.24148717 -0.23440551 216.54490089 -0.2464695 C219.68709578 -0.2618619 222.82828823 -0.25265294 225.97046089 -0.23720741 C226.88408296 -0.24749454 227.79770502 -0.25778167 228.7390126 -0.26838052 C234.37995434 -0.20701634 237.43510905 0.5850598 241.77639961 4.25726891 C244.69842578 8.46295975 244.41289313 13.33608728 243.77639961 18.25726891 C241.70964598 22.39077616 240.02613643 24.53638058 235.77639961 26.25726891 C233.74762261 26.51026857 233.74762261 26.51026857 231.55279922 26.51453781 C230.29238082 26.52421115 230.29238082 26.52421115 229.00649941 26.53407991 C227.62937415 26.5294341 227.62937415 26.5294341 226.22442818 26.52469444 C224.75557287 26.53149111 224.75557287 26.53149111 223.25704372 26.53842509 C219.96673585 26.55111325 216.67659256 26.54944586 213.38626289 26.54779625 C211.03090387 26.55377872 208.6755468 26.56058361 206.32019234 26.56815147 C199.91526147 26.58584681 193.51038402 26.59050833 187.10543108 26.59178305 C183.10589725 26.59277071 179.10637012 26.59734119 175.10684013 26.60277748 C161.87985301 26.62039013 148.65289834 26.62961629 135.4258994 26.62811653 C134.35633792 26.62799666 134.35633792 26.62799666 133.26516914 26.62787437 C132.19430163 26.62775173 132.19430163 26.62775173 131.10180043 26.62762661 C119.53096983 26.62681365 107.96026938 26.64595373 96.38947643 26.67415111 C84.50836116 26.70287624 72.62730937 26.71669162 60.74615848 26.71496356 C54.07590371 26.71429953 47.40576609 26.72018552 40.73554039 26.74131966 C34.46300696 26.76065058 28.19076208 26.76086158 21.91821861 26.74628639 C19.61477425 26.74419084 17.31131206 26.74894332 15.00789833 26.76100731 C11.86570345 26.77639972 8.724511 26.76719075 5.58233833 26.75174522 C4.21190524 26.76717591 4.21190524 26.76717591 2.81378663 26.78291833 C-2.82715511 26.72155415 -5.88230982 25.92947801 -10.22360039 22.25726891 C-13.14562656 18.05157806 -12.86009391 13.17845053 -12.22360039 8.25726891 C-9.3876517 2.58537152 -6.36200021 0.01237499 0 0 Z " fill="#0964CC" transform="translate(12.223600387573242,114.74273109436035)"/>
<path d="M0 0 C0.70886799 -0.00297112 1.41773598 -0.00594224 2.14808482 -0.0090034 C4.52937373 -0.01769243 6.91061238 -0.01919882 9.29191589 -0.02069092 C10.9968883 -0.02531895 12.70185967 -0.03034359 14.40682983 -0.03573608 C19.04327043 -0.04886351 23.67969654 -0.0553057 28.31615281 -0.05974674 C31.21229323 -0.0626769 34.10842968 -0.0667816 37.0045681 -0.07125092 C46.06439566 -0.08492671 55.12421417 -0.09459298 64.18405133 -0.09845281 C74.64514194 -0.102934 85.10610192 -0.12048438 95.5671528 -0.1494534 C103.65131931 -0.17106382 111.73544906 -0.18115674 119.81964415 -0.18249393 C124.64885489 -0.18354241 129.47794284 -0.18945939 134.30712318 -0.20731354 C138.8502412 -0.22378316 143.39314399 -0.22595512 147.9362812 -0.21717453 C149.60276617 -0.21640356 151.26926266 -0.22075475 152.93571854 -0.23063278 C155.21301725 -0.24333883 157.48955213 -0.23748331 159.7668457 -0.22705078 C161.04055432 -0.22851734 162.31426294 -0.2299839 163.62656879 -0.2314949 C168.31124674 0.273941 171.71065504 1.68631573 174.94889832 5.14044189 C176.69036158 9.78434394 176.75099599 14.24620323 176.07389832 19.14044189 C174.02816446 22.59702669 172.40609447 23.91897779 169.07389832 26.14044189 C165.93882942 26.3977108 165.93882942 26.3977108 161.98921204 26.40786743 C161.26330427 26.41239854 160.5373965 26.41692966 159.78949153 26.42159808 C157.35053817 26.4342856 154.91180687 26.43261893 152.4728241 26.43096924 C150.72681897 26.43695179 148.98081649 26.4437567 147.2348175 26.45132446 C142.48686288 26.46901971 137.7389803 26.47368133 132.99099588 26.47495604 C129.02969564 26.47685333 125.06841225 26.48420892 121.10711849 26.49130023 C111.76221482 26.50759524 102.41734971 26.51246817 93.07243347 26.51104736 C83.42767277 26.50984568 73.78313576 26.53095033 64.13843167 26.56253469 C55.86234232 26.58867289 47.58632613 26.59941569 39.3101958 26.59813654 C34.36529298 26.59762618 29.42058886 26.60335036 24.47572708 26.62449265 C19.82503072 26.64383366 15.17472347 26.64402795 10.52401352 26.62945938 C8.81679467 26.62736502 7.10955173 26.63210944 5.40237427 26.6441803 C3.07197406 26.65959086 0.74292252 26.65035379 -1.58744812 26.63491821 C-2.89157591 26.63600775 -4.1957037 26.63709728 -5.53935051 26.63821983 C-9.51349173 26.05410848 -11.10734021 24.94653141 -13.92610168 22.14044189 C-16.90938553 17.66551613 -16.7801292 13.38139708 -15.92610168 8.14044189 C-12.06004796 1.14007964 -7.72561744 0.01805871 0 0 Z " fill="#0964CC" transform="translate(79.92610168457031,37.85955810546875)"/>
<path d="M0 0 C1.5876844 -0.01279495 1.5876844 -0.01279495 3.20744324 -0.02584839 C4.36339996 -0.02494202 5.51935669 -0.02403564 6.71034241 -0.02310181 C7.93184494 -0.02981903 9.15334747 -0.03653625 10.41186523 -0.04345703 C13.75904084 -0.05920054 17.10596833 -0.06581203 20.45316386 -0.0670886 C22.54509655 -0.06851099 24.63700328 -0.0727822 26.72892952 -0.07808304 C34.0290657 -0.0965797 41.32912888 -0.10475396 48.62928772 -0.10317993 C55.43108196 -0.10197808 62.2325591 -0.12308966 69.03427309 -0.15466726 C74.87728616 -0.1808261 80.72019563 -0.19154743 86.56326681 -0.19026911 C90.05165959 -0.18975943 93.53977041 -0.19544589 97.02810478 -0.21662521 C100.91840365 -0.23960099 104.80826797 -0.23048904 108.69862366 -0.21841431 C109.85255615 -0.22965332 111.00648865 -0.24089233 112.19538879 -0.25247192 C119.99097101 -0.19085086 119.99097101 -0.19085086 123.89859009 2.11029053 C127.93454011 6.76448418 128.14907961 9.63720917 128.01527405 15.60336304 C127.70434229 18.96932271 127.09367462 20.78796493 124.7691803 23.26742554 C119.08936955 27.09341525 113.48741984 26.69800682 106.89222717 26.67147827 C105.1058358 26.68177315 105.1058358 26.68177315 103.28335571 26.692276 C100.02916629 26.70740805 96.7753373 26.70904735 93.5211277 26.70333362 C90.79993814 26.70023617 88.07880007 26.70634025 85.35761786 26.71237236 C78.936656 26.72640163 72.51582725 26.7248692 66.09486389 26.71347046 C59.47934361 26.70198559 52.86422856 26.71607434 46.24876165 26.74286693 C40.55939305 26.76504273 34.87015148 26.77165727 29.18074274 26.76579052 C25.7868189 26.7624248 22.39315491 26.76481019 18.99926758 26.78204155 C15.21458214 26.79690867 11.43079077 26.78630471 7.64613342 26.76913452 C5.96741905 26.78363647 5.96741905 26.78363647 4.25479126 26.7984314 C-1.8955969 26.73996575 -5.55266418 26.38782272 -10.2308197 22.26742554 C-12.99137274 19.36096589 -13.66210669 17.38117936 -13.6683197 13.39242554 C-13.52123389 8.64365497 -12.47392083 5.87087124 -9.2308197 2.26742554 C-6.09785318 0.29900173 -3.66870433 0.01338035 0 0 Z " fill="#0964CC" transform="translate(128.23081970214844,191.73257446289063)"/>
</svg>
