<?xml version="1.0" encoding="UTF-8"?>
<svg version="1.1" xmlns="http://www.w3.org/2000/svg" width="256" height="256">
<path d="M0 0 C2.79592809 1.95905165 5.43819111 4.01207823 8.05859375 6.19921875 C8.69410156 6.72128906 9.32960938 7.24335937 9.984375 7.78125 C28.3182332 24.42923618 35.90750364 53.64412813 37.1796875 77.46679688 C38.41609465 107.90714081 31.30203581 137.58841238 11.38671875 161.1796875 C3.39571312 169.79855786 -6.8011968 175.48750645 -18.515625 176.51171875 C-32.68054649 176.97003775 -44.09741336 172.36820929 -54.57421875 162.79296875 C-74.29762416 142.28545242 -81.39232952 113.41734599 -81.31640625 85.69921875 C-81.31586243 84.95109924 -81.3153186 84.20297974 -81.3147583 83.43218994 C-81.22360395 56.10557491 -74.28081773 28.55482262 -54.94140625 8.19921875 C-39.79028379 -6.16610806 -18.5926806 -11.38276993 0 0 Z " fill="#FDFDFD" transform="translate(96.94140625,42.80078125)"/>
<path d="M0 0 C18.61783938 14.46255349 27.67726064 39.06394306 31.28735352 61.640625 C32.07151174 68.27804803 32.08859435 74.91939733 32.0703125 81.59375 C32.06976868 82.34186951 32.06922485 83.08998901 32.06866455 83.86077881 C31.9775102 111.18739384 25.03472398 138.73814613 5.6953125 159.09375 C-4.84510725 169.08750292 -15.92970414 173.66762742 -30.3515625 173.36328125 C-43.91834789 172.43827316 -53.67692973 165.19377951 -62.7421875 155.53125 C-69.37354829 147.87561851 -69.37354829 147.87561851 -71.3046875 143.09375 C-70.89107265 137.58114559 -69.28476597 132.80312276 -67.4296875 127.65625 C-56.37790085 95.73948075 -57.69465762 59.37637448 -70.44921875 28.14453125 C-71.44831833 24.5815323 -71.34232835 22.63393642 -70.3046875 19.09375 C-63.30259529 7.0877236 -52.81842786 -3.14295683 -39.5546875 -7.84375 C-24.98041323 -11.55103757 -12.19573713 -8.1999828 0 0 Z " fill="#FDFDFD" transform="translate(208.3046875,45.90625)"/>
<path d="M0 0 C2.79592809 1.95905165 5.43819111 4.01207823 8.05859375 6.19921875 C8.69410156 6.72128906 9.32960938 7.24335937 9.984375 7.78125 C28.3182332 24.42923618 35.90750364 53.64412813 37.1796875 77.46679688 C38.41609465 107.90714081 31.30203581 137.58841238 11.38671875 161.1796875 C3.39571312 169.79855786 -6.8011968 175.48750645 -18.515625 176.51171875 C-32.68054649 176.97003775 -44.09741336 172.36820929 -54.57421875 162.79296875 C-74.29762416 142.28545242 -81.39232952 113.41734599 -81.31640625 85.69921875 C-81.31586243 84.95109924 -81.3153186 84.20297974 -81.3147583 83.43218994 C-81.22360395 56.10557491 -74.28081773 28.55482262 -54.94140625 8.19921875 C-39.79028379 -6.16610806 -18.5926806 -11.38276993 0 0 Z M-50.94140625 20.19921875 C-64.25210023 38.82300487 -70.54049452 59.78842909 -70.33251953 82.55102539 C-70.31643504 84.63299271 -70.33248261 86.71301249 -70.3515625 88.79492188 C-70.38975518 112.01453641 -63.62910498 136.76804864 -47.47729492 154.07617188 C-40.61332069 160.89058256 -32.23667625 165.43073386 -22.44140625 166.07421875 C-11.21966097 165.36346265 -1.64259873 159.15395746 5.81640625 151.046875 C15.03748155 139.33578807 22.98592279 123.31477806 23.05859375 108.19921875 C22.51332031 108.41578125 21.96804687 108.63234375 21.40625 108.85546875 C12.7596849 112.04804663 5.9429724 112.30548007 -2.58203125 108.51953125 C-8.6605676 105.1179662 -12.74593225 100.18645227 -15.27734375 93.71484375 C-17.37455221 85.77012465 -16.62488548 78.58847673 -12.5546875 71.45703125 C-8.13900703 65.27721693 -2.45204505 60.77815986 5.05859375 59.19921875 C11.60090013 58.36974776 16.99309466 59.7902262 23.05859375 62.19921875 C22.60835423 44.43522303 13.524176 27.45818914 1.05859375 15.19921875 C0.53394531 14.67585938 0.00929688 14.1525 -0.53125 13.61328125 C-4.46634577 10.0161023 -9.07833979 8.18334987 -13.94140625 6.19921875 C-14.60140625 5.86921875 -15.26140625 5.53921875 -15.94140625 5.19921875 C-29.89644624 3.31571642 -42.34697978 9.16583342 -50.94140625 20.19921875 Z " fill="#11192C" transform="translate(96.94140625,42.80078125)"/>
<path d="M0 0 C18.61783938 14.46255349 27.67726064 39.06394306 31.28735352 61.640625 C32.07151174 68.27804803 32.08859435 74.91939733 32.0703125 81.59375 C32.06976868 82.34186951 32.06922485 83.08998901 32.06866455 83.86077881 C31.9775102 111.18739384 25.03472398 138.73814613 5.6953125 159.09375 C-4.84510725 169.08750292 -15.92970414 173.66762742 -30.3515625 173.36328125 C-43.91834789 172.43827316 -53.67692973 165.19377951 -62.7421875 155.53125 C-71.35014156 145.59372342 -71.35014156 145.59372342 -71.2421875 139.65625 C-70.18770002 135.64919759 -68.85489129 131.93555939 -67.3046875 128.09375 C-64.60979877 130.48132685 -63.26141505 132.94192063 -61.6796875 136.15625 C-56.85425606 145.22950513 -49.58257513 153.76417653 -40.1796875 158.28125 C-39.18582031 158.76658203 -39.18582031 158.76658203 -38.171875 159.26171875 C-30.73888181 162.57391028 -22.68429415 161.98139946 -15.1796875 159.15625 C1.15198888 151.53480102 8.50667733 136.06945647 14.6953125 120.09375 C16.41504591 115.26269679 17.6953125 111.24261513 17.6953125 106.09375 C17.20289063 106.4134375 16.71046875 106.733125 16.203125 107.0625 C9.67043866 109.74883831 0.20714034 109.2862808 -6.43359375 107.03125 C-12.96980909 103.35899466 -17.67899126 98.21143044 -20.43359375 91.234375 C-22.43647031 84.01324156 -22.39731385 76.51657407 -19.2421875 69.65625 C-14.92627813 62.19710132 -8.55093496 57.55096515 -0.3046875 55.09375 C6.1842584 54.09458705 11.68500444 55.7066773 17.6953125 58.09375 C15.48509324 40.10713807 7.45760789 22.18596653 -6.3046875 10.09375 C-15.82990612 4.25762601 -24.79427697 1.2442041 -35.96484375 3.671875 C-50.63808072 8.78774209 -59.58524019 22.92560234 -66.3046875 36.09375 C-67.86658829 33.75089882 -68.9539244 31.84905191 -69.9921875 29.28125 C-70.40017578 28.31251953 -70.40017578 28.31251953 -70.81640625 27.32421875 C-71.73521883 23.12708289 -70.83942709 20.01063276 -68.703125 16.34765625 C-51.06162863 -7.11757734 -26.46948411 -17.79714601 0 0 Z " fill="#11192C" transform="translate(208.3046875,45.90625)"/>
<path d="M0 0 C4.9710149 2.53240382 8.49430567 5.98861134 11 11 C11.54360446 15.95482094 11.56437074 19.87125852 9.3125 24.375 C6.25551994 27.84508548 2.88400221 31.64170237 -1.91796875 32.23828125 C-7.88421668 32.43339091 -11.18216898 31.58975645 -16 28 C-19.68632884 24.21914991 -20.3036138 21.11871131 -20.5 16 C-20.3036138 10.88128869 -19.68632884 7.78085009 -16 4 C-10.83631376 0.15254751 -6.42086656 -1.15997407 0 0 Z " fill="#324054" transform="translate(218,112)"/>
<path d="M0 0 C4.16534059 2.44387142 6.59811636 4.63173836 8.7421875 9.0546875 C9.65174278 14.61813398 9.81034529 20.28624878 6.6171875 25.1171875 C3.49991662 28.68724633 0.33768447 30.6812347 -4.4296875 31.3671875 C-9.87555309 31.65958297 -13.01779699 30.70307294 -17.2578125 27.0546875 C-21.76214895 21.94165694 -22.77768764 18.71093341 -22.7421875 11.95703125 C-21.92691992 7.07200049 -19.01910803 4.10500644 -15.2578125 1.0546875 C-10.45750747 -1.84073458 -5.1909737 -2.17338345 0 0 Z " fill="#324054" transform="translate(113.2578125,112.9453125)"/>
</svg>
